<svg xmlns="http://www.w3.org/2000/svg" width="2025" height="768" fill="none" viewBox="0 0 2025 768"><g clip-path="url(#a)"><use href="#b"/><path fill="url(#c)" d="M0 12C0 5.373 5.373 0 12 0h2001c6.63 0 12 5.373 12 12v747c0 6.627-5.37 12-12 12H12c-6.627 0-12-5.373-12-12z"/><path fill="#6e718c" d="M777.7 560.75q-5 0-9-2.4-3.95-2.45-6.2-6.65t-2.25-9.35q0-5 2.25-9.1 2.25-4.15 6.2-6.55 4-2.4 9-2.4 4.85 0 8.75 2.3 3.9 2.25 6.15 6.2l-4.15 2.6q-1.4-2.6-4.2-4.35-2.75-1.8-6.45-1.8-3.3 0-6.1 1.65-2.75 1.6-4.4 4.55t-1.65 6.85q0 4 1.65 7.05t4.4 4.75q2.8 1.65 6.1 1.65 3.45 0 6.1-1.65 2.7-1.65 4.55-4.4l4.2 2.6q-2.3 3.9-6.25 6.2-3.9 2.25-8.7 2.25m26.37-27.25v3.25q1.25-2.1 3.9-3.05t6.15-.95v4.75q-3 0-5.25.85-2.25.8-3.5 2.3-1.25 1.45-1.25 3.35v16h-5.05v-26.5zm25.521 27.25q-3.75 0-6.85-1.85-3.05-1.9-4.85-5.1-1.75-3.25-1.75-7.2 0-3.85 1.8-7t4.9-4.95q3.1-1.85 6.85-1.85 4.15 0 7.05 1.75a10.94 10.94 0 0 1 4.45 4.75q1.55 3.05 1.55 7 0 .9-.2 2.8l-21.25.05q.5 2.1 1.8 3.65 1.35 1.5 3.1 2.3t3.45.8q2.6 0 4.65-.95 2.1-1 3.4-2.6l3.95 2.55q-1.75 2.95-4.9 4.4-3.1 1.45-7.15 1.45m8.2-16.05q-.55-3.1-2.75-5.1-2.15-2-5.3-2-2 0-3.85.9-1.8.85-3.1 2.5-1.25 1.6-1.5 3.7zm37.234-11.2V560h-5.15v-4.15q-3.7 4.85-9.65 4.85-3.7 0-6.75-1.85-3-1.9-4.75-5.15t-1.75-7.2q0-3.75 1.75-6.9t4.75-4.95q3.05-1.85 6.75-1.85 6 0 9.65 4.7v-4zm-13.8 22.45q2.5 0 4.5-1.25a9.1 9.1 0 0 0 3.2-3.45q1.15-2.15 1.15-4.7a8.85 8.85 0 0 0-1.15-4.4 8.95 8.95 0 0 0-3.15-3.35q-2-1.25-4.55-1.25-2.7 0-4.8 1.25a8.9 8.9 0 0 0-3.2 3.3 8.76 8.76 0 0 0-1.15 4.35q0 2.6 1.15 4.8a9.1 9.1 0 0 0 3.2 3.45q2.1 1.25 4.8 1.25m37.358 4.45q-1.65.2-3.35.2-4.7 0-6.7-2.1t-2-6.6v-13.8h-5.65v-4.6h5.65v-5.3l4.9-1.5v6.8h7.15v4.6h-7.15v13.8q0 4.15 5.4 4.15.45 0 1.75-.1zm17.553.35q-3.75 0-6.85-1.85-3.05-1.9-4.85-5.1-1.75-3.25-1.75-7.2 0-3.85 1.8-7t4.9-4.95q3.1-1.85 6.85-1.85 4.15 0 7.05 1.75a10.94 10.94 0 0 1 4.45 4.75q1.55 3.05 1.55 7 0 .9-.2 2.8l-21.25.05q.5 2.1 1.8 3.65 1.35 1.5 3.1 2.3t3.45.8q2.6 0 4.65-.95 2.1-1 3.4-2.6l3.95 2.55q-1.75 2.95-4.9 4.4-3.1 1.45-7.15 1.45m8.2-16.05q-.55-3.1-2.75-5.1-2.15-2-5.3-2-2 0-3.85.9-1.8.85-3.1 2.5-1.25 1.6-1.5 3.7zm23.498-11.2h4.8l6.5 20.4 6.1-20.4h5.85l6.15 20.4 6.5-20.4h4.75l-8.35 26.5h-5.85l-6.1-20.3-6.15 20.3h-5.85zm45.931-9.85h5.25v4.75h-5.25zm.1 9.85h5.05V560h-5.05zm28.765 26.9c-1.1.133-2.22.2-3.35.2-3.14 0-5.37-.7-6.7-2.1-1.34-1.4-2-3.6-2-6.6v-13.8h-5.65v-4.6h5.65v-5.3l4.9-1.5v6.8h7.15v4.6h-7.15v13.8q0 4.15 5.4 4.15c.3 0 .88-.033 1.75-.1zm10.8-36.1v13.05a9.06 9.06 0 0 1 3.55-3.35c1.53-.8 3.3-1.2 5.3-1.2q2.7 0 4.95 1.35c1.53.867 2.75 2.083 3.65 3.65q1.35 2.3 1.35 5.1V560h-5.15v-15.3c0-1.967-.58-3.617-1.75-4.95s-2.75-2-4.75-2c-1.3 0-2.48.35-3.55 1.05-1.03.7-1.87 1.65-2.5 2.85q-.9 1.75-.9 3.85V560h-5.1v-35.7zm245.36 29.3h5.75l-4.1 12.65h-4.15zm45.98 7.15q-4.995 0-9-2.4c-2.63-1.633-4.7-3.85-6.2-6.65q-2.25-4.2-2.25-9.35 0-5 2.25-9.1c1.5-2.767 3.57-4.95 6.2-6.55q4.005-2.4 9-2.4c3.24 0 6.15.767 8.75 2.3q3.9 2.25 6.15 6.2l-4.15 2.6q-1.395-2.6-4.2-4.35-2.745-1.8-6.45-1.8c-2.2 0-4.23.55-6.1 1.65-1.83 1.067-3.3 2.583-4.4 4.55q-1.65 2.95-1.65 6.85 0 4 1.65 7.05c1.1 2.033 2.57 3.617 4.4 4.75 1.87 1.1 3.9 1.65 6.1 1.65 2.3 0 4.34-.55 6.1-1.65 1.8-1.1 3.32-2.567 4.55-4.4l4.2 2.6c-1.53 2.6-3.61 4.667-6.25 6.2q-3.9 2.25-8.7 2.25m21.37-36.4h5.05V560h-5.05zm39.12 9.15V560h-5.15v-4.15c-2.47 3.233-5.68 4.85-9.65 4.85q-3.705 0-6.75-1.85c-2-1.267-3.58-2.983-4.75-5.15s-1.75-4.567-1.75-7.2c0-2.5.58-4.8 1.75-6.9s2.75-3.75 4.75-4.95q3.045-1.85 6.75-1.85c4 0 7.22 1.567 9.65 4.7v-4zm-13.8 22.45q2.505 0 4.5-1.25a9.1 9.1 0 0 0 3.2-3.45c.77-1.433 1.15-3 1.15-4.7 0-1.567-.38-3.033-1.15-4.4a9 9 0 0 0-3.15-3.35c-1.33-.833-2.85-1.25-4.55-1.25q-2.7 0-4.8 1.25a8.9 8.9 0 0 0-3.2 3.3 8.7 8.7 0 0 0-1.15 4.35c0 1.733.38 3.333 1.15 4.8a9.1 9.1 0 0 0 3.2 3.45q2.1 1.25 4.8 1.25m26.56-22.45v3.25q1.245-2.1 3.9-3.05 2.64-.95 6.15-.95v4.75q-3 0-5.25.85c-1.5.533-2.67 1.3-3.5 2.3a4.95 4.95 0 0 0-1.25 3.35v16h-5.05v-26.5zm15.87-9.85h5.25v4.75h-5.25zm.1 9.85h5.05V560h-5.05zm28.76 26.9c-1.1.133-2.22.2-3.35.2-3.13 0-5.37-.7-6.7-2.1s-2-3.6-2-6.6v-13.8h-5.65v-4.6h5.65v-5.3l4.9-1.5v6.8h7.15v4.6h-7.15v13.8q0 4.15 5.4 4.15c.3 0 .88-.033 1.75-.1zm15.55-1.8-12.15-25.1h5.1l9.6 19.9 8.75-19.9h5l-16.95 38.5h-5.2zm52.34-30.1c-1.07-.333-2-.5-2.8-.5q-4.155 0-4.2 5.5h7v4.75h-7V560h-5v-21.75h-5.45v-4.75h5.45q.195-5.25 2.1-7.6 1.905-2.4 6.45-2.4 1.905 0 3.45.25zm11 5v3.25q1.26-2.1 3.9-3.05 2.655-.95 6.15-.95v4.75q-3 0-5.25.85c-1.5.533-2.66 1.3-3.5 2.3-.83.967-1.25 2.083-1.25 3.35v16h-5.05v-26.5zm25.73 27.3c-2.54 0-4.85-.633-6.95-1.9-2.07-1.267-3.7-2.983-4.9-5.15q-1.8-3.3-1.8-7.25 0-3.75 1.8-6.9c1.2-2.133 2.83-3.817 4.9-5.05 2.1-1.233 4.41-1.85 6.95-1.85q3.795 0 6.9 1.85a13.44 13.44 0 0 1 4.95 5q1.8 3.15 1.8 6.95 0 3.95-1.8 7.25a13.6 13.6 0 0 1-4.95 5.15q-3.105 1.9-6.9 1.9m0-4.75c1.76 0 3.28-.433 4.55-1.3 1.3-.9 2.28-2.083 2.95-3.55.66-1.467 1-3.05 1-4.75 0-1.533-.34-2.983-1-4.35a8 8 0 0 0-2.95-3.35c-1.27-.867-2.79-1.3-4.55-1.3-1.74 0-3.25.433-4.55 1.3q-1.95 1.25-3 3.35a9.75 9.75 0 0 0-1 4.35c0 1.7.33 3.283 1 4.75q1.05 2.2 3 3.55c1.3.867 2.81 1.3 4.55 1.3m24.51-22.55v3.85q2.76-4.6 8.25-4.6c1.67 0 3.2.45 4.6 1.35a11.1 11.1 0 0 1 3.5 3.45c.84-1.367 2.1-2.5 3.8-3.4 1.7-.933 3.54-1.4 5.5-1.4 1.8 0 3.44.45 4.9 1.35 1.5.867 2.67 2.083 3.5 3.65.87 1.533 1.3 3.25 1.3 5.15V560h-5.1v-15.3c0-2.033-.51-3.7-1.55-5-1.03-1.3-2.56-1.95-4.6-1.95-1.8 0-3.31.717-4.55 2.15q-1.8 2.1-1.8 5.6V560h-5.1v-15.3c0-2.033-.53-3.7-1.6-5q-1.545-1.95-4.5-1.95-2.895 0-4.65 2.25c-1.13 1.467-1.7 3.3-1.7 5.5V560h-5.1v-26.5zm73.95 27.25q-4.995 0-9-2.4c-2.63-1.633-4.7-3.85-6.2-6.65q-2.25-4.2-2.25-9.35 0-5 2.25-9.1c1.5-2.767 3.57-4.95 6.2-6.55q4.005-2.4 9-2.4c3.23 0 6.15.767 8.75 2.3q3.9 2.25 6.15 6.2l-4.15 2.6q-1.395-2.6-4.2-4.35-2.745-1.8-6.45-1.8c-2.2 0-4.23.55-6.1 1.65-1.83 1.067-3.3 2.583-4.4 4.55q-1.65 2.95-1.65 6.85 0 4 1.65 7.05c1.1 2.033 2.57 3.617 4.4 4.75 1.87 1.1 3.9 1.65 6.1 1.65 2.3 0 4.33-.55 6.1-1.65 1.8-1.1 3.32-2.567 4.55-4.4l4.2 2.6c-1.53 2.6-3.62 4.667-6.25 6.2q-3.9 2.25-8.7 2.25m26.27-36.45v13.05a9.06 9.06 0 0 1 3.55-3.35c1.53-.8 3.3-1.2 5.3-1.2q2.7 0 4.95 1.35c1.53.867 2.75 2.083 3.65 3.65q1.35 2.3 1.35 5.1V560h-5.15v-15.3c0-1.967-.58-3.617-1.75-4.95s-2.75-2-4.75-2c-1.3 0-2.48.35-3.55 1.05-1.03.7-1.87 1.65-2.5 2.85q-.9 1.75-.9 3.85V560h-5.1v-35.7zm52.28 9.2V560h-5.15v-4.15c-2.46 3.233-5.68 4.85-9.65 4.85q-3.69 0-6.75-1.85c-2-1.267-3.58-2.983-4.75-5.15-1.16-2.167-1.75-4.567-1.75-7.2 0-2.5.59-4.8 1.75-6.9 1.17-2.1 2.75-3.75 4.75-4.95q3.06-1.85 6.75-1.85c4 0 7.22 1.567 9.65 4.7v-4zm-13.8 22.45q2.505 0 4.5-1.25a9 9 0 0 0 3.2-3.45c.77-1.433 1.15-3 1.15-4.7 0-1.567-.38-3.033-1.15-4.4a8.84 8.84 0 0 0-3.15-3.35c-1.33-.833-2.85-1.25-4.55-1.25q-2.7 0-4.8 1.25a9 9 0 0 0-3.2 3.3c-.76 1.367-1.15 2.817-1.15 4.35 0 1.733.39 3.333 1.15 4.8a9.2 9.2 0 0 0 3.2 3.45q2.1 1.25 4.8 1.25m33.41 4.85c-2.53 0-4.85-.633-6.95-1.9-2.07-1.267-3.7-2.983-4.9-5.15q-1.8-3.3-1.8-7.25 0-3.75 1.8-6.9c1.2-2.133 2.83-3.817 4.9-5.05 2.1-1.233 4.42-1.85 6.95-1.85q3.795 0 6.9 1.85a13.44 13.44 0 0 1 4.95 5q1.8 3.15 1.8 6.95 0 3.95-1.8 7.25a13.6 13.6 0 0 1-4.95 5.15q-3.105 1.9-6.9 1.9m0-4.75c1.77 0 3.28-.433 4.55-1.3 1.3-.9 2.28-2.083 2.95-3.55s1-3.05 1-4.75c0-1.533-.33-2.983-1-4.35a8 8 0 0 0-2.95-3.35c-1.27-.867-2.78-1.3-4.55-1.3-1.73 0-3.25.433-4.55 1.3q-1.95 1.25-3 3.35a9.75 9.75 0 0 0-1 4.35c0 1.7.33 3.283 1 4.75q1.05 2.2 3 3.55c1.3.867 2.82 1.3 4.55 1.3m29.52 4.65c-1.97 0-3.98-.433-6.05-1.3q-3.045-1.3-5.1-3.75l3.3-2.85q3.645 3.35 8.1 3.35 2.55 0 4.2-.85c1.1-.6 1.67-1.483 1.7-2.65q0-1.25-.9-1.95c-.57-.467-1.33-.817-2.3-1.05-.93-.233-2.52-.55-4.75-.95-2.73-.467-4.87-1.267-6.4-2.4s-2.3-2.75-2.3-4.85c0-1.8.47-3.35 1.4-4.65.97-1.3 2.25-2.267 3.85-2.9 1.63-.667 3.4-1 5.3-1 2.03 0 4 .367 5.9 1.1s3.43 1.917 4.6 3.55l-3.2 2.7c-.73-.933-1.72-1.667-2.95-2.2s-2.65-.8-4.25-.8c-1.73 0-3.2.333-4.4 1-1.17.633-1.75 1.583-1.75 2.85 0 .733.23 1.317.7 1.75.47.4 1.23.75 2.3 1.05 1.07.267 2.68.583 4.85.95q3.945.65 6.45 2.5 2.55 1.8 2.55 5.05c0 1.7-.52 3.183-1.55 4.45q-1.545 1.85-4.05 2.85t-5.25 1"/><path fill="#5252ff" d="M1090.77 560.75q-4.995 0-9-2.4c-2.63-1.633-4.7-3.85-6.2-6.65q-2.25-4.2-2.25-9.35 0-5 2.25-9.1c1.5-2.767 3.57-4.95 6.2-6.55q4.005-2.4 9-2.4c3.24 0 6.15.767 8.75 2.3q3.9 2.25 6.15 6.2l-4.15 2.6q-1.395-2.6-4.2-4.35-2.745-1.8-6.45-1.8c-2.2 0-4.23.55-6.1 1.65-1.83 1.067-3.3 2.583-4.4 4.55q-1.65 2.95-1.65 6.85 0 4 1.65 7.05c1.1 2.033 2.57 3.617 4.4 4.75 1.87 1.1 3.9 1.65 6.1 1.65 2.3 0 4.34-.55 6.1-1.65 1.8-1.1 3.32-2.567 4.55-4.4l4.2 2.6c-1.53 2.6-3.61 4.667-6.25 6.2q-3.9 2.25-8.7 2.25m33.22.05c-2.53 0-4.85-.633-6.95-1.9-2.06-1.267-3.7-2.983-4.9-5.15q-1.8-3.3-1.8-7.25 0-3.75 1.8-6.9c1.2-2.133 2.84-3.817 4.9-5.05 2.1-1.233 4.42-1.85 6.95-1.85q3.81 0 6.9 1.85a13.44 13.44 0 0 1 4.95 5q1.8 3.15 1.8 6.95 0 3.95-1.8 7.25a13.6 13.6 0 0 1-4.95 5.15q-3.09 1.9-6.9 1.9m0-4.75c1.77 0 3.29-.433 4.55-1.3a8.47 8.47 0 0 0 2.95-3.55c.67-1.467 1-3.05 1-4.75 0-1.533-.33-2.983-1-4.35a7.93 7.93 0 0 0-2.95-3.35c-1.26-.867-2.78-1.3-4.55-1.3-1.73 0-3.25.433-4.55 1.3q-1.95 1.25-3 3.35a9.9 9.9 0 0 0-1 4.35c0 1.7.34 3.283 1 4.75q1.05 2.2 3 3.55c1.3.867 2.82 1.3 4.55 1.3m24.52-22.55v3.85a9.06 9.06 0 0 1 3.55-3.35c1.54-.8 3.3-1.2 5.3-1.2q2.7 0 4.95 1.35c1.54.867 2.75 2.083 3.65 3.65q1.35 2.3 1.35 5.1V560h-5.15v-15.3c0-1.967-.58-3.617-1.75-4.95-1.16-1.333-2.75-2-4.75-2-1.3 0-2.48.35-3.55 1.05-1.03.7-1.86 1.65-2.5 2.85q-.9 1.75-.9 3.85V560h-5.1v-26.5zm41.83 26.9c-1.1.133-2.21.2-3.35.2-3.13 0-5.36-.7-6.7-2.1-1.33-1.4-2-3.6-2-6.6v-13.8h-5.65v-4.6h5.65v-5.3l4.9-1.5v6.8h7.15v4.6h-7.15v13.8q0 4.15 5.4 4.15c.3 0 .89-.033 1.75-.1zm17.56.35c-2.5 0-4.79-.617-6.85-1.85-2.04-1.267-3.65-2.967-4.85-5.1-1.17-2.167-1.75-4.567-1.75-7.2q0-3.85 1.8-7c1.2-2.1 2.83-3.75 4.9-4.95 2.06-1.233 4.35-1.85 6.85-1.85q4.14 0 7.05 1.75c1.96 1.133 3.45 2.717 4.45 4.75 1.03 2.033 1.55 4.367 1.55 7 0 .6-.07 1.533-.2 2.8l-21.25.05q.495 2.1 1.8 3.65c.9 1 1.93 1.767 3.1 2.3q1.74.8 3.45.8 2.595 0 4.65-.95c1.4-.667 2.53-1.533 3.4-2.6l3.95 2.55c-1.17 1.967-2.8 3.433-4.9 4.4-2.07.967-4.45 1.45-7.15 1.45m8.2-16.05c-.37-2.067-1.29-3.767-2.75-5.1-1.44-1.333-3.2-2-5.3-2-1.34 0-2.62.3-3.85.9a8.5 8.5 0 0 0-3.1 2.5q-1.26 1.6-1.5 3.7zm17.28 1.55-10.15-12.75h5.55l7.35 9.25 7.35-9.25h5.45l-10.05 12.75 10.8 13.75h-5.55l-8-10.25-8.05 10.25h-5.5zm37.41 14.15c-1.1.133-2.22.2-3.35.2-3.14 0-5.37-.7-6.7-2.1-1.34-1.4-2-3.6-2-6.6v-13.8h-5.65v-4.6h5.65v-5.3l4.9-1.5v6.8h7.15v4.6h-7.15v13.8q0 4.15 5.4 4.15c.3 0 .88-.033 1.75-.1z"/><path fill="#3f3f51" d="M693.8 328h27.9l39.42 86.04L802.34 328h27.9v126h-24.3v-86.22l-31.86 71.1h-25.92l-30.06-71.1V454h-24.3zm162.887 30.6h24.3V454h-24.3zm-.36-35.46h25.02v22.5h-25.02zm51.94 35.46h23.58v11.16q4.86-7.2 12.06-10.44 7.38-3.24 16.02-3.24 10.62 0 18.72 4.86t12.42 13.5q4.5 8.46 4.5 18.72V454h-24.3v-52.56q0-6.84-2.16-11.52-2.16-4.86-6.48-7.2-4.14-2.52-9.9-2.52-5.58 0-10.26 2.52-4.5 2.34-7.2 7.2t-2.7 11.7V454h-24.3zm154.193 97.92q-13.68 0-25.02-6.66-11.16-6.66-17.64-18.18-6.3-11.7-6.3-25.92 0-13.86 6.48-25.2t17.82-17.82q11.34-6.66 25.02-6.66 17.1 0 28.26 7.38t15.84 20.88q4.68 13.32 2.7 31.32l-72.54.36q1.8 5.94 5.94 10.08 4.32 3.96 9.54 5.94t9.9 1.98q5.04 0 9.54-.9 4.5-1.08 8.1-3.24a28.5 28.5 0 0 0 6.66-5.22l.9-1.08 18.54 12.24q-6.12 10.44-17.28 15.66-11.16 5.04-26.46 5.04m25.02-60.48q-1.44-5.58-5.22-9.54t-9-5.94a28.3 28.3 0 0 0-10.44-1.98q-5.22 0-10.62 2.16t-9.36 6.12-5.04 9.18zm101.81 60.66q-18 0-32.4-8.64-14.22-8.82-22.32-23.94t-8.1-33.66q0-18 8.1-32.76 8.1-14.94 22.32-23.58 14.4-8.64 32.4-8.64 17.46 0 31.5 8.28 14.22 8.28 22.32 22.32l-20.7 12.96q-4.32-8.1-13.14-13.68-8.64-5.58-19.98-5.58-11.52 0-19.8 5.4t-12.6 14.76q-4.32 9.18-4.32 20.52 0 11.7 4.32 21.24t12.6 15.12 19.8 5.58q7.2 0 13.32-2.52c4.2-1.68 7.86-3.96 10.99-6.84 3.23-2.88 6.11-6.12 8.63-9.72l21.06 12.96q-8.28 14.04-22.5 22.32-14.22 8.1-31.5 8.1m118.74.18q-13.86 0-25.2-6.84t-17.82-18.54q-6.48-11.88-6.48-26.1 0-13.5 6.48-24.84 6.66-11.52 17.82-18.18 11.34-6.66 25.2-6.66t25.02 6.66q11.34 6.66 17.82 18t6.48 25.02q0 14.22-6.48 26.1-6.48 11.7-17.82 18.54-11.16 6.84-25.02 6.84m0-22.5q8.1 0 13.68-3.96 5.58-4.14 8.46-10.62 2.88-6.66 2.88-14.4 0-7.02-2.88-13.14-2.88-6.3-8.64-10.08-5.58-3.96-13.5-3.96t-13.68 3.96q-5.76 3.78-8.64 10.08t-2.88 13.14q0 7.74 2.88 14.4 2.88 6.48 8.46 10.62 5.76 3.96 13.86 3.96m70.09-75.78h23.58v11.16q4.86-7.2 12.06-10.44 7.38-3.24 16.02-3.24 10.62 0 18.72 4.86t12.42 13.5q4.5 8.46 4.5 18.72V454h-24.3v-52.56q0-6.84-2.16-11.52-2.16-4.86-6.48-7.2-4.14-2.52-9.9-2.52-5.58 0-10.26 2.52-4.5 2.34-7.2 7.2t-2.7 11.7V454h-24.3zm168.95 96.48q-16.38 1.8-26.64-.9-10.08-2.52-14.94-9.72-4.68-7.38-4.68-19.62V381.1h-17.46v-22.5h17.46v-18.18l23.22-7.02v25.2h23.04v22.5h-23.04v43.74q0 4.68 2.7 6.84 2.88 1.98 7.56 2.34 4.86.36 12.78 0zm63.37 1.44q-13.68 0-25.02-6.66-11.16-6.66-17.64-18.18-6.3-11.7-6.3-25.92 0-13.86 6.48-25.2t17.82-17.82q11.34-6.66 25.02-6.66 17.1 0 28.26 7.38t15.84 20.88q4.68 13.32 2.7 31.32l-72.54.36q1.8 5.94 5.94 10.08 4.32 3.96 9.54 5.94t9.9 1.98q5.04 0 9.54-.9 4.5-1.08 8.1-3.24a28.5 28.5 0 0 0 6.66-5.22l.9-1.08 18.54 12.24q-6.12 10.44-17.28 15.66-11.16 5.04-26.46 5.04m25.02-60.48q-1.44-5.58-5.22-9.54t-9-5.94a28.3 28.3 0 0 0-10.44-1.98q-5.22 0-10.62 2.16t-9.36 6.12-5.04 9.18zm71.94 8.64-34.2-46.08h26.64l20.7 29.34 20.52-29.34h26.46l-34.02 45.9 36.72 49.5h-26.82l-23.04-32.76-23.04 32.76h-26.46zm139.1 50.4q-16.38 1.8-26.64-.9-10.08-2.52-14.94-9.72-4.68-7.38-4.68-19.62V381.1h-17.46v-22.5h17.46v-18.18l23.22-7.02v25.2h23.04v22.5h-23.04v43.74q0 4.68 2.7 6.84 2.88 1.98 7.56 2.34 4.86.36 12.78 0z"/><path fill="url(#d)" fill-rule="evenodd" d="M612.804 477.69c-1.088 29.809-8.781 58.531-23.234 86.943-21.835 42.851-57.268 77.473-103.191 100.761l-10.646 5.356-3.186-6.365c-1.709-3.493-4.973-8.306-7.071-10.79-2.176-2.407-3.963-4.503-3.963-4.736 0-.155 1.399-.698 3.186-1.242 5.128-1.552 20.825-8.772 29.528-13.585 45.535-25.384 82.522-65.983 103.58-113.88 7.304-16.379 11.733-32.681 14.064-51.778 1.011-7.84 1.399-3.881.933 9.316" clip-rule="evenodd"/><path fill="url(#e)" d="M322.033 105.774c24.944 8.306 48.333 28.722 60.299 52.709 8.392 16.69 12.666 39.357 10.879 57.522-1.632 16.458-5.051 28.568-12.2 42.773-11.811 23.677-28.129 42.929-64.417 76.154-36.055 33.069-56.491 54.96-69.623 74.445-9.092 13.429-19.504 36.019-24.71 53.718-16.396 55.194-8.392 109.145 22.145 148.348 4.74 6.055 14.298 16.069 14.298 14.904 0-.31-1.01-2.562-2.253-5.046-2.642-5.278 146.628 70.487 118.421 69.478-97.674-3.494-181.828-62.103-220.214-153.238-9.558-22.745-15.696-47.586-18.027-72.738-1.321-14.439-.467-44.403 1.631-58.298 7.926-52.477 30.927-99.209 67.215-136.936 13.909-14.439 28.595-26.316 56.335-45.49 18.339-12.731 26.808-19.485 34.657-27.713 17.017-17.777 25.176-35.942 25.254-56.203 0-13.042-3.73-24.453-11.035-33.691l-3.263-4.114 3.807.544c2.098.31 6.916 1.63 10.801 2.872"/><path fill="#000" fill-rule="evenodd" d="M258.704 626.347c0-.31-1.01-2.562-2.253-5.046-2.642-5.278-5.595-14.361-7.538-23.443-2.253-10.247-2.02-37.029.311-48.052 5.673-26.005 17.406-48.285 36.288-69.011 7.771-8.539 21.291-19.407 36.521-29.499 11.811-7.763 16.318-11.334 22.612-17.544 10.257-10.324 14.298-16.535 20.67-32.448 2.875-7.22 6.682-15.914 8.47-19.33 3.652-6.986 10.723-17.932 13.676-20.959l1.942-2.096-1.554-2.95c-7.226-14.129-6.838-34.389.933-51.157 2.952-6.443 5.75-10.713 10.49-16.069l3.263-3.649 4.041 1.242c14.142 4.115 26.419 16.38 31.937 31.906 1.631 4.657 4.351 16.845 4.351 19.639 0 .699.777.777 12.355 2.252 28.362 3.571 52.839 15.059 76.617 35.941 10.412 9.083 14.375 13.43 24.166 26.316 7.304 9.471 9.558 13.663 9.635 17.311 0 4.425-4.351 8.151-9.48 8.151-2.564 0-2.564 0-2.331 3.416.389 4.58-1.942 9.005-8.003 14.905-12.433 12.187-30.694 19.562-52.684 21.27-12.744.931-15.93 1.785-19.97 5.201-5.517 4.735-6.605 7.762-6.605 18.475 0 10.79.622 13.119 8.936 34.545 7.848 20.338 8.858 24.918 8.858 40.366.078 10.713-.233 13.973-1.709 19.64-2.953 11.955-9.403 23.677-16.629 30.508-3.574 3.416-10.024 8.229-10.412 7.84-.156-.155.233-2.717.854-5.667.622-2.949 1.166-9.082 1.166-13.662 0-12.809-2.564-23.444-8.392-35.166-10.18-20.416-30.849-38.037-54.549-46.576-5.128-1.863-17.717-5.046-19.815-5.046-.388 0 2.72 1.785 6.994 3.959 14.531 7.375 21.913 12.343 30.771 20.727 11.267 10.557 20.436 25.694 24.166 39.745 1.399 5.434 1.71 8.694 1.71 18.243.077 11.799-.622 16.457-3.575 25.539-1.632 4.969-7.537 17.311-10.024 20.805-1.632 2.173-1.942 3.338-.777 2.561 1.399-.776 13.676 1.01 18.338 2.795 6.139 2.251 13.443 9.393 16.707 16.379 2.642 5.667 2.875 7.22 1.01 7.996-23.467 9.548-57.113 15.138-85.32 14.128-97.674-3.493-116.168-63.266-116.168-64.431" clip-rule="evenodd"/><path fill="#fff" d="M488.315 381.176c-7.805 3.687-10.184 11.223-6.021 18.596 5.203 8.847 14.941 11.714 24.456 7.126 6.914-3.358 8.103-6.307 5.278-12.369-5.129-11.141-15.833-17.121-23.713-13.353"/></g><defs><linearGradient id="c" x1="0" x2="1933.49" y1="0" y2="980.933" gradientUnits="userSpaceOnUse"><stop stop-color="#cec1d2"/><stop offset=".083" stop-color="#d9dae8"/><stop offset=".311" stop-color="#f2f2f2"/><stop offset=".86" stop-color="#fdfcf8"/><stop offset=".917" stop-color="#f9faed"/><stop offset="1" stop-color="#ffeddf"/></linearGradient><linearGradient id="d" x1="537.256" x2="537.256" y1="464.367" y2="670.75" gradientUnits="userSpaceOnUse"><stop stop-color="#b9b9b9"/><stop offset="1"/></linearGradient><linearGradient id="e" x1="13016.6" x2="13016.6" y1="102.358" y2="59808.9" gradientUnits="userSpaceOnUse"><stop/><stop offset="1" stop-color="#757575"/></linearGradient><clipPath id="a"><use href="#b"/></clipPath><path id="b" fill="#fff" d="M0 0h2025v768H0z"/></defs></svg>